<mxfile host="app.diagrams.net" agent="Mozilla/5.0 (Windows NT 10.0; Win64; x64) AppleWebKit/537.36 (KHTML, like Gecko) Chrome/132.0.0.0 Safari/537.36" version="26.0.14">
  <diagram id="C5RBs43oDa-KdzZeNtuy" name="Page-1">
    <mxGraphModel dx="1295" dy="653" grid="1" gridSize="10" guides="1" tooltips="1" connect="1" arrows="1" fold="1" page="1" pageScale="1" pageWidth="827" pageHeight="1169" math="0" shadow="0">
      <root>
        <mxCell id="WIyWlLk6GJQsqaUBKTNV-0" />
        <mxCell id="WIyWlLk6GJQsqaUBKTNV-1" parent="WIyWlLk6GJQsqaUBKTNV-0" />
        <mxCell id="Q6AgkDgWXiaU7bFI3k5Q-0" value="Start" style="ellipse;whiteSpace=wrap;html=1;aspect=fixed;" vertex="1" parent="WIyWlLk6GJQsqaUBKTNV-1">
          <mxGeometry x="90" y="40" width="80" height="80" as="geometry" />
        </mxCell>
        <mxCell id="Q6AgkDgWXiaU7bFI3k5Q-64" style="edgeStyle=orthogonalEdgeStyle;rounded=0;orthogonalLoop=1;jettySize=auto;html=1;exitX=0.5;exitY=1;exitDx=0;exitDy=0;entryX=0.5;entryY=0;entryDx=0;entryDy=0;" edge="1" parent="WIyWlLk6GJQsqaUBKTNV-1" source="Q6AgkDgWXiaU7bFI3k5Q-4" target="Q6AgkDgWXiaU7bFI3k5Q-8">
          <mxGeometry relative="1" as="geometry" />
        </mxCell>
        <mxCell id="Q6AgkDgWXiaU7bFI3k5Q-4" value="Get input (re: number between 1 and 12)" style="shape=parallelogram;perimeter=parallelogramPerimeter;whiteSpace=wrap;html=1;fixedSize=1;" vertex="1" parent="WIyWlLk6GJQsqaUBKTNV-1">
          <mxGeometry x="55" y="360" width="150" height="60" as="geometry" />
        </mxCell>
        <mxCell id="Q6AgkDgWXiaU7bFI3k5Q-6" value="Welcome message" style="strokeWidth=2;html=1;shape=mxgraph.flowchart.display;whiteSpace=wrap;" vertex="1" parent="WIyWlLk6GJQsqaUBKTNV-1">
          <mxGeometry x="80" y="170" width="100" height="60" as="geometry" />
        </mxCell>
        <mxCell id="Q6AgkDgWXiaU7bFI3k5Q-63" style="edgeStyle=orthogonalEdgeStyle;rounded=0;orthogonalLoop=1;jettySize=auto;html=1;exitX=0.5;exitY=1;exitDx=0;exitDy=0;exitPerimeter=0;entryX=0.5;entryY=0;entryDx=0;entryDy=0;" edge="1" parent="WIyWlLk6GJQsqaUBKTNV-1" source="Q6AgkDgWXiaU7bFI3k5Q-7" target="Q6AgkDgWXiaU7bFI3k5Q-4">
          <mxGeometry relative="1" as="geometry" />
        </mxCell>
        <mxCell id="Q6AgkDgWXiaU7bFI3k5Q-7" value="Prompt user for number between 1 and 12" style="strokeWidth=2;html=1;shape=mxgraph.flowchart.display;whiteSpace=wrap;" vertex="1" parent="WIyWlLk6GJQsqaUBKTNV-1">
          <mxGeometry x="70" y="270" width="120" height="60" as="geometry" />
        </mxCell>
        <mxCell id="Q6AgkDgWXiaU7bFI3k5Q-10" value="" style="edgeStyle=orthogonalEdgeStyle;rounded=0;orthogonalLoop=1;jettySize=auto;html=1;" edge="1" parent="WIyWlLk6GJQsqaUBKTNV-1" source="Q6AgkDgWXiaU7bFI3k5Q-8" target="Q6AgkDgWXiaU7bFI3k5Q-9">
          <mxGeometry relative="1" as="geometry" />
        </mxCell>
        <mxCell id="Q6AgkDgWXiaU7bFI3k5Q-8" value="Initiate number" style="rounded=1;whiteSpace=wrap;html=1;" vertex="1" parent="WIyWlLk6GJQsqaUBKTNV-1">
          <mxGeometry x="70" y="470" width="120" height="60" as="geometry" />
        </mxCell>
        <mxCell id="Q6AgkDgWXiaU7bFI3k5Q-12" value="" style="edgeStyle=orthogonalEdgeStyle;rounded=0;orthogonalLoop=1;jettySize=auto;html=1;" edge="1" parent="WIyWlLk6GJQsqaUBKTNV-1" source="Q6AgkDgWXiaU7bFI3k5Q-9" target="Q6AgkDgWXiaU7bFI3k5Q-11">
          <mxGeometry relative="1" as="geometry" />
        </mxCell>
        <mxCell id="Q6AgkDgWXiaU7bFI3k5Q-9" value="Generate number (1,12)" style="whiteSpace=wrap;html=1;rounded=1;" vertex="1" parent="WIyWlLk6GJQsqaUBKTNV-1">
          <mxGeometry x="70" y="570" width="120" height="60" as="geometry" />
        </mxCell>
        <mxCell id="Q6AgkDgWXiaU7bFI3k5Q-14" value="" style="edgeStyle=orthogonalEdgeStyle;rounded=0;orthogonalLoop=1;jettySize=auto;html=1;" edge="1" parent="WIyWlLk6GJQsqaUBKTNV-1" source="Q6AgkDgWXiaU7bFI3k5Q-25" target="Q6AgkDgWXiaU7bFI3k5Q-13">
          <mxGeometry relative="1" as="geometry" />
        </mxCell>
        <mxCell id="Q6AgkDgWXiaU7bFI3k5Q-16" value="" style="edgeStyle=orthogonalEdgeStyle;rounded=0;orthogonalLoop=1;jettySize=auto;html=1;" edge="1" parent="WIyWlLk6GJQsqaUBKTNV-1" source="Q6AgkDgWXiaU7bFI3k5Q-27" target="Q6AgkDgWXiaU7bFI3k5Q-15">
          <mxGeometry relative="1" as="geometry">
            <Array as="points">
              <mxPoint x="474" y="260" />
            </Array>
          </mxGeometry>
        </mxCell>
        <mxCell id="Q6AgkDgWXiaU7bFI3k5Q-21" value="" style="edgeStyle=orthogonalEdgeStyle;rounded=0;orthogonalLoop=1;jettySize=auto;html=1;" edge="1" parent="WIyWlLk6GJQsqaUBKTNV-1" source="Q6AgkDgWXiaU7bFI3k5Q-41">
          <mxGeometry relative="1" as="geometry">
            <mxPoint x="315" y="269" as="sourcePoint" />
            <mxPoint x="505" y="269" as="targetPoint" />
            <Array as="points">
              <mxPoint x="395" y="269" />
              <mxPoint x="395" y="269" />
            </Array>
          </mxGeometry>
        </mxCell>
        <mxCell id="Q6AgkDgWXiaU7bFI3k5Q-24" value="" style="edgeStyle=orthogonalEdgeStyle;rounded=0;orthogonalLoop=1;jettySize=auto;html=1;" edge="1" parent="WIyWlLk6GJQsqaUBKTNV-1" source="Q6AgkDgWXiaU7bFI3k5Q-35" target="Q6AgkDgWXiaU7bFI3k5Q-23">
          <mxGeometry relative="1" as="geometry" />
        </mxCell>
        <mxCell id="Q6AgkDgWXiaU7bFI3k5Q-11" value="Number determines season" style="rhombus;whiteSpace=wrap;html=1;rounded=1;" vertex="1" parent="WIyWlLk6GJQsqaUBKTNV-1">
          <mxGeometry x="250" y="250" width="80" height="80" as="geometry" />
        </mxCell>
        <mxCell id="Q6AgkDgWXiaU7bFI3k5Q-13" value="Set resultString to Spring" style="whiteSpace=wrap;html=1;rounded=1;" vertex="1" parent="WIyWlLk6GJQsqaUBKTNV-1">
          <mxGeometry x="230" width="120" height="60" as="geometry" />
        </mxCell>
        <mxCell id="Q6AgkDgWXiaU7bFI3k5Q-48" style="edgeStyle=orthogonalEdgeStyle;rounded=0;orthogonalLoop=1;jettySize=auto;html=1;exitX=1;exitY=0.5;exitDx=0;exitDy=0;entryX=0.434;entryY=0.003;entryDx=0;entryDy=0;entryPerimeter=0;" edge="1" parent="WIyWlLk6GJQsqaUBKTNV-1" source="Q6AgkDgWXiaU7bFI3k5Q-15" target="Q6AgkDgWXiaU7bFI3k5Q-43">
          <mxGeometry relative="1" as="geometry">
            <mxPoint x="730" y="380" as="targetPoint" />
          </mxGeometry>
        </mxCell>
        <mxCell id="Q6AgkDgWXiaU7bFI3k5Q-15" value="Set resultString to Summer" style="whiteSpace=wrap;html=1;rounded=1;" vertex="1" parent="WIyWlLk6GJQsqaUBKTNV-1">
          <mxGeometry x="413.5" y="40" width="120" height="60" as="geometry" />
        </mxCell>
        <mxCell id="Q6AgkDgWXiaU7bFI3k5Q-20" value="Set resultString to Fall" style="whiteSpace=wrap;html=1;rounded=1;" vertex="1" parent="WIyWlLk6GJQsqaUBKTNV-1">
          <mxGeometry x="500" y="260" width="120" height="60" as="geometry" />
        </mxCell>
        <mxCell id="Q6AgkDgWXiaU7bFI3k5Q-23" value="Set resultString to Winter" style="whiteSpace=wrap;html=1;rounded=1;" vertex="1" parent="WIyWlLk6GJQsqaUBKTNV-1">
          <mxGeometry x="370" y="390" width="120" height="60" as="geometry" />
        </mxCell>
        <mxCell id="Q6AgkDgWXiaU7bFI3k5Q-26" value="" style="edgeStyle=orthogonalEdgeStyle;rounded=0;orthogonalLoop=1;jettySize=auto;html=1;" edge="1" parent="WIyWlLk6GJQsqaUBKTNV-1" source="Q6AgkDgWXiaU7bFI3k5Q-11" target="Q6AgkDgWXiaU7bFI3k5Q-25">
          <mxGeometry relative="1" as="geometry">
            <mxPoint x="290" y="250" as="sourcePoint" />
            <mxPoint x="290" y="80" as="targetPoint" />
          </mxGeometry>
        </mxCell>
        <mxCell id="Q6AgkDgWXiaU7bFI3k5Q-25" value="3,4,5" style="text;html=1;align=center;verticalAlign=middle;whiteSpace=wrap;rounded=0;" vertex="1" parent="WIyWlLk6GJQsqaUBKTNV-1">
          <mxGeometry x="260" y="150" width="60" height="30" as="geometry" />
        </mxCell>
        <mxCell id="Q6AgkDgWXiaU7bFI3k5Q-28" value="" style="edgeStyle=orthogonalEdgeStyle;rounded=0;orthogonalLoop=1;jettySize=auto;html=1;" edge="1" parent="WIyWlLk6GJQsqaUBKTNV-1" source="Q6AgkDgWXiaU7bFI3k5Q-11" target="Q6AgkDgWXiaU7bFI3k5Q-27">
          <mxGeometry relative="1" as="geometry">
            <mxPoint x="300" y="260" as="sourcePoint" />
            <mxPoint x="474" y="100" as="targetPoint" />
            <Array as="points" />
          </mxGeometry>
        </mxCell>
        <mxCell id="Q6AgkDgWXiaU7bFI3k5Q-27" value="6,7,8" style="text;html=1;align=center;verticalAlign=middle;whiteSpace=wrap;rounded=0;" vertex="1" parent="WIyWlLk6GJQsqaUBKTNV-1">
          <mxGeometry x="443.5" y="200" width="60" height="30" as="geometry" />
        </mxCell>
        <mxCell id="Q6AgkDgWXiaU7bFI3k5Q-37" value="" style="edgeStyle=orthogonalEdgeStyle;rounded=0;orthogonalLoop=1;jettySize=auto;html=1;" edge="1" parent="WIyWlLk6GJQsqaUBKTNV-1" source="Q6AgkDgWXiaU7bFI3k5Q-11" target="Q6AgkDgWXiaU7bFI3k5Q-35">
          <mxGeometry relative="1" as="geometry">
            <mxPoint x="330" y="290" as="sourcePoint" />
            <mxPoint x="430" y="350" as="targetPoint" />
          </mxGeometry>
        </mxCell>
        <mxCell id="Q6AgkDgWXiaU7bFI3k5Q-35" value="12,1,2" style="text;html=1;align=center;verticalAlign=middle;whiteSpace=wrap;rounded=0;" vertex="1" parent="WIyWlLk6GJQsqaUBKTNV-1">
          <mxGeometry x="400" y="300" width="60" height="30" as="geometry" />
        </mxCell>
        <mxCell id="Q6AgkDgWXiaU7bFI3k5Q-42" value="" style="edgeStyle=orthogonalEdgeStyle;rounded=0;orthogonalLoop=1;jettySize=auto;html=1;" edge="1" parent="WIyWlLk6GJQsqaUBKTNV-1" target="Q6AgkDgWXiaU7bFI3k5Q-41">
          <mxGeometry relative="1" as="geometry">
            <mxPoint x="315" y="269" as="sourcePoint" />
            <mxPoint x="505" y="269" as="targetPoint" />
            <Array as="points" />
          </mxGeometry>
        </mxCell>
        <mxCell id="Q6AgkDgWXiaU7bFI3k5Q-41" value="9,10,11" style="text;html=1;align=center;verticalAlign=middle;whiteSpace=wrap;rounded=0;" vertex="1" parent="WIyWlLk6GJQsqaUBKTNV-1">
          <mxGeometry x="360" y="250" width="60" height="30" as="geometry" />
        </mxCell>
        <mxCell id="Q6AgkDgWXiaU7bFI3k5Q-43" value="Display resultString" style="strokeWidth=2;html=1;shape=mxgraph.flowchart.display;whiteSpace=wrap;" vertex="1" parent="WIyWlLk6GJQsqaUBKTNV-1">
          <mxGeometry x="680" y="400" width="100" height="60" as="geometry" />
        </mxCell>
        <mxCell id="Q6AgkDgWXiaU7bFI3k5Q-46" style="edgeStyle=orthogonalEdgeStyle;rounded=0;orthogonalLoop=1;jettySize=auto;html=1;exitX=1;exitY=0.5;exitDx=0;exitDy=0;entryX=1.026;entryY=0.25;entryDx=0;entryDy=0;entryPerimeter=0;" edge="1" parent="WIyWlLk6GJQsqaUBKTNV-1">
          <mxGeometry relative="1" as="geometry">
            <mxPoint x="330" y="27.5" as="sourcePoint" />
            <mxPoint x="742.5999999999999" y="402.5" as="targetPoint" />
          </mxGeometry>
        </mxCell>
        <mxCell id="Q6AgkDgWXiaU7bFI3k5Q-51" style="edgeStyle=orthogonalEdgeStyle;rounded=0;orthogonalLoop=1;jettySize=auto;html=1;exitX=1;exitY=0.5;exitDx=0;exitDy=0;entryX=0.234;entryY=0.03;entryDx=0;entryDy=0;entryPerimeter=0;" edge="1" parent="WIyWlLk6GJQsqaUBKTNV-1" source="Q6AgkDgWXiaU7bFI3k5Q-20" target="Q6AgkDgWXiaU7bFI3k5Q-43">
          <mxGeometry relative="1" as="geometry" />
        </mxCell>
        <mxCell id="Q6AgkDgWXiaU7bFI3k5Q-54" style="edgeStyle=orthogonalEdgeStyle;rounded=0;orthogonalLoop=1;jettySize=auto;html=1;exitX=1;exitY=0.5;exitDx=0;exitDy=0;entryX=0.034;entryY=0.323;entryDx=0;entryDy=0;entryPerimeter=0;" edge="1" parent="WIyWlLk6GJQsqaUBKTNV-1" source="Q6AgkDgWXiaU7bFI3k5Q-23" target="Q6AgkDgWXiaU7bFI3k5Q-43">
          <mxGeometry relative="1" as="geometry" />
        </mxCell>
        <mxCell id="Q6AgkDgWXiaU7bFI3k5Q-57" style="edgeStyle=orthogonalEdgeStyle;rounded=0;orthogonalLoop=1;jettySize=auto;html=1;exitX=0.5;exitY=1;exitDx=0;exitDy=0;exitPerimeter=0;entryX=0.978;entryY=0.218;entryDx=0;entryDy=0;entryPerimeter=0;" edge="1" parent="WIyWlLk6GJQsqaUBKTNV-1" source="Q6AgkDgWXiaU7bFI3k5Q-43">
          <mxGeometry relative="1" as="geometry">
            <mxPoint x="667.3599999999999" y="527.44" as="targetPoint" />
          </mxGeometry>
        </mxCell>
        <mxCell id="Q6AgkDgWXiaU7bFI3k5Q-58" value="End" style="strokeWidth=2;html=1;shape=mxgraph.flowchart.terminator;whiteSpace=wrap;" vertex="1" parent="WIyWlLk6GJQsqaUBKTNV-1">
          <mxGeometry x="620" y="530" width="100" height="60" as="geometry" />
        </mxCell>
        <mxCell id="Q6AgkDgWXiaU7bFI3k5Q-60" value="" style="endArrow=none;html=1;rounded=0;" edge="1" parent="WIyWlLk6GJQsqaUBKTNV-1">
          <mxGeometry width="50" height="50" relative="1" as="geometry">
            <mxPoint x="390" y="360" as="sourcePoint" />
            <mxPoint x="440" y="310" as="targetPoint" />
          </mxGeometry>
        </mxCell>
        <mxCell id="Q6AgkDgWXiaU7bFI3k5Q-61" style="edgeStyle=orthogonalEdgeStyle;rounded=0;orthogonalLoop=1;jettySize=auto;html=1;exitX=0.5;exitY=1;exitDx=0;exitDy=0;entryX=0.5;entryY=0;entryDx=0;entryDy=0;entryPerimeter=0;" edge="1" parent="WIyWlLk6GJQsqaUBKTNV-1" source="Q6AgkDgWXiaU7bFI3k5Q-0" target="Q6AgkDgWXiaU7bFI3k5Q-6">
          <mxGeometry relative="1" as="geometry" />
        </mxCell>
        <mxCell id="Q6AgkDgWXiaU7bFI3k5Q-62" style="edgeStyle=orthogonalEdgeStyle;rounded=0;orthogonalLoop=1;jettySize=auto;html=1;exitX=0.5;exitY=1;exitDx=0;exitDy=0;exitPerimeter=0;entryX=0.5;entryY=0;entryDx=0;entryDy=0;entryPerimeter=0;" edge="1" parent="WIyWlLk6GJQsqaUBKTNV-1" source="Q6AgkDgWXiaU7bFI3k5Q-6" target="Q6AgkDgWXiaU7bFI3k5Q-7">
          <mxGeometry relative="1" as="geometry" />
        </mxCell>
      </root>
    </mxGraphModel>
  </diagram>
</mxfile>
